# xmcd
#
# Track frame offsets: 
#        150
#        17051
#        33466
#        49638
#
# Disc length: 833 seconds
#
# Revision: 6
# Processed by: cddbd v1.5.2PL0 Copyright (c) Steve Scherf et al.
# Submitted via: ExactAudioCopy v0.90b4
#
DISCID=28033f04
DTITLE=The Flatlanders - Live at the One Knite, Austin Texas June 8, 1
DTITLE=972
DYEAR=1972
DGENRE=Country
TTITLE0=The Stars in My Life
TTITLE1=Hesitation Blues
TTITLE2=San Francisco Bay Blues
TTITLE3=I'm Walkin' Down The Line
EXTD=YEAR: 1986 ID3G: 55
EXTT0=
EXTT1=
EXTT2=
EXTT3=
PLAYORDER=
